<?xml version="1.0" encoding="UTF-8"?>
<svg width="26px" height="24px" viewBox="0 0 26 24" version="1.1" xmlns="http://www.w3.org/2000/svg" xmlns:xlink="http://www.w3.org/1999/xlink">
    <title>形状</title>
    <g id="定稿" stroke="none" stroke-width="1" fill="none" fill-rule="evenodd">
        <g id="B08项目详情-弹窗" transform="translate(-328.000000, -1572.000000)" fill="#FFFFFF" fill-rule="nonzero">
            <g id="编组-14备份-4" transform="translate(180.000000, 1512.000000)">
                <g id="椭圆形" transform="translate(148.000000, 60.000000)">
                    <g id="单选" transform="translate(0.220649, 0.000000)">
                        <path d="M22.7832504,-1.13686838e-13 C24.4379508,-1.13686838e-13 25.7793506,1.3504982 25.7793506,2.99649048 L25.7793506,23.9597768 C12.459047,23.2436861 1.65755834,13.0487266 3.8838377e-13,-1.13686838e-13 L22.7832504,-1.13686838e-13 Z M21.4721777,5.2568637 C21.0933214,4.91574004 20.5254165,4.91773509 20.1496267,5.24287289 L20.0599022,5.33087792 L14.7833506,11.19 L13.522504,9.78994258 L13.4327795,9.70193755 C13.0569897,9.37679975 12.4890847,9.3748047 12.1102285,9.71592836 C11.7313723,10.057052 11.6739942,10.6220545 11.9580701,11.0297718 L12.0362143,11.1282038 L13.9882509,13.298314 C14.0246734,13.3455283 14.0658486,13.3901351 14.111741,13.4314568 C14.2095169,13.5194946 14.3198847,13.5846786 14.4365135,13.6268631 L14.5795147,13.6679935 L14.5795147,13.6679935 L14.6246373,13.6760858 L14.6246373,13.6760858 L14.714109,13.6861231 L14.714109,13.6861231 L14.8185722,13.6879384 L14.8185722,13.6879384 L14.8974653,13.6824362 L14.8974653,13.6824362 C15.0982795,13.6602378 15.2942791,13.57716 15.4558816,13.4316525 L15.5211778,13.3672908 L15.5211778,13.3672908 L15.5793716,13.2985097 L21.5461919,6.66913913 C21.9157425,6.25871158 21.8826052,5.62641433 21.4721777,5.2568637 Z" id="形状"></path>
                    </g>
                </g>
            </g>
        </g>
    </g>
</svg>