<?xml version="1.0" encoding="UTF-8"?>
<svg width="16px" height="16px" viewBox="0 0 16 16" version="1.1" xmlns="http://www.w3.org/2000/svg" xmlns:xlink="http://www.w3.org/1999/xlink">
    <title>椭圆形</title>
    <g id="页面-1" stroke="none" stroke-width="1" fill="none" fill-rule="evenodd">
        <g id="A01首页" transform="translate(-575.000000, -228.000000)" fill="#FFFFFF" fill-rule="nonzero">
            <g id="搜索框" transform="translate(10.000000, 186.000000)">
                <g id="编组-9" transform="translate(10.000000, 26.000000)">
                    <g id="编组-11" transform="translate(536.000000, 0.000000)">
                        <path d="M28.1389632,16.0805882 C28.6857093,16.1586084 29.0656868,16.6650815 28.9876666,17.2118276 C28.9096464,17.7585737 28.4031733,18.1385511 27.8564272,18.060531 C27.5746958,18.0203282 27.288781,18 27,18 C26.4477153,18 26,17.5522847 26,17 C26,16.4477153 26.4477153,16 27,16 C27.3833877,16 27.763717,16.0270409 28.1389632,16.0805882 Z M33.1096116,18.8352122 C33.4663426,19.2568298 33.4137417,19.8878061 32.992124,20.2445371 C32.5705064,20.6012682 31.9395302,20.5486672 31.5827991,20.1270496 C31.3978904,19.9085074 31.197598,19.7033039 30.9835896,19.5131386 C30.5707452,19.14629 30.5334582,18.5142239 30.9003068,18.1013794 C31.2671554,17.688535 31.8992216,17.651248 32.312066,18.0180966 C32.5969107,18.2712062 32.863483,18.5443147 33.1096116,18.8352122 Z M33.9892777,25.0738305 C33.4764692,25.0685275 33.0578124,24.6781374 33.0051931,24.180228 L32.9996716,24.0635435 C32.9999452,24.0318016 32.9999452,24.0318016 33,24 C33,23.7519669 32.9850038,23.5060344 32.9552926,23.2630283 C32.8882666,22.7148259 33.2783371,22.2160846 33.8265396,22.1490585 C34.374742,22.0820324 34.8734833,22.472103 34.9405094,23.0203055 C34.9800612,23.3437975 35,23.670787 35,24 L34.9995647,24.0842244 C34.9938538,24.6364797 34.5415329,25.0795414 33.9892777,25.0738305 Z M32.9426959,29.3558658 C32.5728391,29.7660174 31.9405172,29.7986827 31.5303656,29.4288259 C31.120214,29.058969 31.0875487,28.4266472 31.4574056,28.0164956 C31.6491892,27.8038177 31.825615,27.577766 31.9851899,27.3401481 C32.2930942,26.8816577 32.9143798,26.7595836 33.3728702,27.0674879 C33.8313605,27.3753922 33.9534346,27.9966778 33.6455304,28.4551681 C33.4329569,28.7717044 33.1980234,29.0727212 32.9426959,29.3558658 Z M27.8601945,31.9542105 C27.3110478,32.0130019 26.8182167,31.6154904 26.7594254,31.0663437 C26.7006341,30.5171971 27.0981456,30.024366 27.6472922,29.9655747 C27.9329969,29.9349873 28.2145362,29.8841598 28.4904156,29.8136803 C29.0255144,29.6769773 29.5701174,29.999941 29.7068203,30.5350398 C29.8435233,31.0701386 29.5205596,31.6147415 28.9854608,31.7514445 C28.6170154,31.8455721 28.2411909,31.9134213 27.8601945,31.9542105 Z M22.5061679,30.6194015 C22.0494783,30.3088327 21.9310239,29.6868468 22.2415928,29.2301571 C22.5521616,28.7734674 23.1741475,28.6550131 23.6308372,28.9655819 C23.8673367,29.1264119 24.1149856,29.2701556 24.3719444,29.3955871 C24.8682552,29.6378555 25.0741973,30.2365923 24.8319289,30.7329031 C24.5896604,31.229214 23.9909236,31.435156 23.4946128,31.1928876 C23.1517409,31.0255186 22.8214478,30.8338055 22.5061679,30.6194015 Z M19.2410199,25.9557248 C19.1063829,25.4201024 19.4314458,24.8767498 19.9670682,24.7421129 C20.5026905,24.6074759 21.0460431,24.9325388 21.1806801,25.4681612 C21.2504743,25.7458214 21.3400481,26.017398 21.4485851,26.2811978 C21.6587243,26.7919423 21.4150356,27.376334 20.9042911,27.5864733 C20.3935466,27.7966125 19.8091549,27.5529238 19.5990157,27.0421793 C19.4539951,26.689706 19.3342863,26.3267641 19.2410199,25.9557248 Z M19.8361093,20.435824 C20.0824505,19.941522 20.6828604,19.74051 21.1771624,19.9868511 C21.6714644,20.2331923 21.8724765,20.8336022 21.6261353,21.3279042 C21.4987381,21.5835363 21.3897745,21.848104 21.3001981,22.1198379 C21.1272912,22.6443583 20.5619147,22.9293975 20.0373943,22.7564906 C19.5128739,22.5835838 19.2278348,22.0182073 19.4007416,21.4936869 C19.5204301,21.1306067 19.6659912,20.7771788 19.8361093,20.435824 Z M23.9973967,16.5828568 C24.5092632,16.3754655 25.0923368,16.6222914 25.2997281,17.1341579 C25.5071195,17.6460243 25.2602936,18.229098 24.7484271,18.4364893 C24.4833637,18.5438842 24.2265027,18.6701912 23.9796605,18.8143242 C23.5027278,19.0928087 22.8903411,18.9319346 22.6118566,18.4550018 C22.3333721,17.9780691 22.4942462,17.3656825 22.9711789,17.087198 C23.300536,16.894884 23.6434219,16.7262756 23.9973967,16.5828568 Z" id="椭圆形"></path>
                    </g>
                </g>
            </g>
        </g>
    </g>
</svg>