<?xml version="1.0" encoding="utf-8"?>
<!-- Generator: Adobe Illustrator 22.0.0, SVG Export Plug-In . SVG Version: 6.00 Build 0)  -->
<svg version="1.1" id="图层_1" xmlns="http://www.w3.org/2000/svg" xmlns:xlink="http://www.w3.org/1999/xlink" x="0px" y="0px"
	 viewBox="0 0 48 48" style="enable-background:new 0 0 48 48;" xml:space="preserve">
<style type="text/css">
	.st0{fill:#DCE2ED;}
</style>
<title>pic</title>
<desc>Created with Sketch.</desc>
<g>
	<path class="st0" d="M15.2,25.2c2.7,0,4.9-2.2,4.9-4.9s-2.2-4.9-4.9-4.9c-2.7,0-4.9,2.2-4.9,4.9S12.5,25.2,15.2,25.2z M15.2,17.3
		c1.6,0,3,1.3,3,3c0,1.6-1.3,3-3,3c-1.6,0-3-1.3-3-3C12.2,18.6,13.6,17.3,15.2,17.3z"/>
	<path class="st0" d="M37.8,5.3H10.2c-2.7,0-4.9,2.2-4.9,4.9v27.6c0,2.7,2.2,4.9,4.9,4.9h27.6c2.7,0,4.9-2.2,4.9-4.9V10.2
		C42.7,7.5,40.5,5.3,37.8,5.3z M10.2,7.3h27.6c1.6,0,3,1.3,3,3v16.5l-5.1-5.1c-1.4-1.5-3.8-1.5-5.3,0L19.2,32.8l-1.6-1.6
		c-1.2-1.2-3.3-1.2-4.5,0L7.3,37V10.2C7.3,8.6,8.6,7.3,10.2,7.3z M7.7,39.3l6.7-6.7c0.5-0.5,1.3-0.5,1.7,0l8.2,8.2H10.2
		C9.2,40.7,8.2,40.2,7.7,39.3z M37.8,40.7H27.1c0-0.1-0.1-0.1-0.1-0.2l-6.4-6.4L31.7,23c0.7-0.7,1.8-0.7,2.5,0l6.5,6.5v8.2
		C40.7,39.4,39.4,40.7,37.8,40.7z"/>
</g>
</svg>
