<?xml version="1.0" encoding="UTF-8"?>
<svg width="26px" height="26px" viewBox="0 0 26 26" version="1.1" xmlns="http://www.w3.org/2000/svg" xmlns:xlink="http://www.w3.org/1999/xlink">
    <title>i</title>
    <defs>
        <filter id="filter-1">
            <feColorMatrix in="SourceGraphic" type="matrix" values="0 0 0 0 1.000000 0 0 0 0 1.000000 0 0 0 0 1.000000 0 0 0 1.000000 0"></feColorMatrix>
        </filter>
    </defs>
    <g id="智多星小程序二期" stroke="none" stroke-width="1" fill="none" fill-rule="evenodd">
        <g id="首页-气泡提示" transform="translate(-242.000000, -223.000000)">
            <g id="搜索框" transform="translate(10.000000, 186.000000)">
                <g id="i" transform="translate(0.000000, 30.000000)" filter="url(#filter-1)">
                    <g transform="translate(232.000000, 7.000000)">
                        <path d="M13,10.6363636 C13.6527002,10.6363636 14.1818182,11.1717702 14.1818182,11.814672 L14.1818182,18.9126007 C14.1818182,19.5226899 13.7207725,20.0244845 13.1215839,20.0848256 L13,20.0909091 C12.3472998,20.0909091 11.8181818,19.5555025 11.8181818,18.9126007 L11.8181818,11.814672 C11.8181818,11.2045829 12.2792275,10.7027883 12.8784161,10.6424471 L13,10.6363636 Z M13,5.90909091 C13.6527002,5.90909091 14.1818182,6.43223494 14.1818182,7.08967594 L14.1818182,8.27396043 C14.1818182,8.88522834 13.7207725,9.38799248 13.1215839,9.44845023 L13,9.45454545 C12.3472998,9.45454545 11.8181818,8.93140143 11.8181818,8.27396043 L11.8181818,7.08967594 C11.8181818,6.47840802 12.2792275,5.97564389 12.8784161,5.91518614 L13,5.90909091 Z" fill="#999999" opacity="0.98999995"></path>
                        <circle id="Oval-2" stroke="#9A9A9A" stroke-width="2" cx="13" cy="13" r="12"></circle>
                    </g>
                </g>
            </g>
        </g>
    </g>
</svg>