<?xml version="1.0" encoding="UTF-8"?>
<svg width="58px" height="58px" viewBox="0 0 58 58" version="1.1" xmlns="http://www.w3.org/2000/svg" xmlns:xlink="http://www.w3.org/1999/xlink">
    <title>project board@1x</title>
    <g id="控件" stroke="none" stroke-width="1" fill="none" fill-rule="evenodd">
        <g id="Icons-/-TabBarIcons-/-apply" transform="translate(-96.000000, -6.000000)">
            <g id="icon" transform="translate(96.000000, 6.000000)">
                <rect id="矩形" fill="#FFFFFF" opacity="0" x="0" y="0" width="57.6" height="57.6"></rect>
                <path d="M11.4,12 L22.490575,12 C23.2087639,12 23.8892087,12.3216307 24.3450839,12.8765838 L26.0707911,14.9773488 C26.5266663,15.5323019 27.2071111,15.8539326 27.9253,15.8539326 L46.6,15.8539326 C47.9254834,15.8539326 49,16.9284492 49,18.2539326 L49,45.6 C49,46.9254834 47.9254834,48 46.6,48 L11.4,48 C10.0745166,48 9,46.9254834 9,45.6 L9,14.4 C9,13.0745166 10.0745166,12 11.4,12 Z" id="形状结合" stroke="#333333" stroke-width="3"></path>
                <line x1="19" y1="36" x2="38" y2="36" id="路径-4" stroke="#333333" stroke-width="3" stroke-linecap="round" stroke-linejoin="round"></line>
            </g>
        </g>
    </g>
</svg>