<?xml version="1.0" encoding="UTF-8"?>
<svg width="58px" height="58px" viewBox="0 0 58 58" version="1.1" xmlns="http://www.w3.org/2000/svg" xmlns:xlink="http://www.w3.org/1999/xlink">
    <title>intelligence</title>
    <g id="控件" stroke="none" stroke-width="1" fill="none" fill-rule="evenodd">
        <g id="Icons-/-TabBarIcons-/-distribution-selected" transform="translate(-96.000000, -6.000000)">
            <g id="icon" transform="translate(96.000000, 6.000000)">
                <rect id="矩形" fill="#FFFFFF" opacity="0" x="0" y="0" width="57.6" height="57.6"></rect>
                <rect id="矩形" fill="#FFFFFF" opacity="0" x="9.6" y="9.6" width="38.4" height="38.4"></rect>
                <path d="M12,9.6 L36,9.6 C37.3254834,9.6 38.4,10.6745166 38.4,12 L38.4,38.4 L38.4,38.4 L38.4,43.2 C38.4,45.8509668 40.5490332,48 43.2,48 L43.2,48 L43.2,48 L33.6,48 L12,48 C10.6745166,48 9.6,46.9254834 9.6,45.6 L9.6,12 C9.6,10.6745166 10.6745166,9.6 12,9.6 Z" id="路径" stroke="#276FF0" stroke-width="3" fill="#276FF0"></path>
                <path d="M38.4,26.4 L45.6,26.4 C46.9254834,26.4 48,27.4745166 48,28.8 L48,43.2 C48,45.8509668 45.8509668,48 43.2,48 C40.5490332,48 38.4,45.8509668 38.4,43.2 L38.4,26.4 L38.4,26.4 Z" id="路径" stroke="#276FF0" stroke-width="3"></path>
                <line x1="19.2" y1="22.6" x2="28.8" y2="22.6" id="路径-2" stroke="#FFFFFF" stroke-width="3" stroke-linecap="round" stroke-linejoin="round"></line>
                <line x1="19.2" y1="30.8" x2="24.2" y2="30.8" id="路径-2" stroke="#FFFFFF" stroke-width="3" stroke-linecap="round" stroke-linejoin="round"></line>
            </g>
        </g>
    </g>
</svg>